ffmpeg started on 2026-03-29 at 16:44:35
Report written to "D:\Convert\FFMetrics\reports\psnr_report-6.txt"
Log level: 32
Command line:
ffmpeg -hide_banner -nostdin -r 30/1 -i "F:\\\xc0\xed\xe8\xec\xe5\\LightFamily\\\xd1\xef\xe8\xf0\xe0\xeb\xfc\\[LightFamily][DUB] \xd1\xef\xe8\xf0\xe0\xeb\xfc 01 \xf1\xe5\xf0\xe8\xff_HEVC.mkv" -r 30/1 -i "F:\\\xc0\xed\xe8\xec\xe5\\LightFamily\\\xd1\xef\xe8\xf0\xe0\xeb\xfc\\[LightFamily][DUB] \xd1\xef\xe8\xf0\xe0\xeb\xfc 01 \xf1\xe5\xf0\xe8\xff.mp4" -lavfi "[0:v]settb=AVTB,setpts=PTS-STARTPTS,format=pix_fmts=yuv420p10le,fps=30/1,scale=1920:1080:flags=lanczos:param0=3:out_range=limited:out_color_matrix=bt709:out_chroma_loc=left,setsar=1/1,setdar=(1920/1080)*(1/1),colorspace=format=yuv420p10:range=tv:primaries=bt709:trc=bt709:space=bt709:fast=0[main];[1:v]settb=AVTB,setpts=PTS-STARTPTS,format=pix_fmts=yuv420p,fps=30/1,scale=1920:1080:flags=lanczos:param0=3:out_range=limited:out_color_matrix=bt709:out_chroma_loc=left,setsar=1/1,setdar=(1920/1080)*(1/1),colorspace=format=yuv420p:range=tv:primaries=bt709:trc=bt709:space=bt709:fast=0[ref];[main][ref]psnr=eof_action=endall:stats_file='D\\:/Convert/FFMetrics/logs/psnr_logfile-6.txt'" -f null -
Input #0, matroska,webm, from 'F:\Аниме\LightFamily\Спираль\[LightFamily][DUB] Спираль 01 серия_HEVC.mkv':
  Metadata:
    MAXRATE         : 0
    MAJOR_BRAND     : isom
    MINOR_VERSION   : 512
    COMPATIBLE_BRANDS: isomiso2avc1mp41
    TE_IS_REENCODE  : 1
    HW              : 1
    BITRATE         : 11000000
    ENCODER         : Lavf61.7.100
  Duration: 00:22:21.00, start: -0.021000, bitrate: 2572 kb/s
  Stream #0:0: Video: hevc (Main 10), yuv420p10le(tv, bt709, progressive), 1920x1080 [SAR 1:1 DAR 16:9], 30 fps, 30 tbr, 1k tbn (default)
      Metadata:
        HANDLER_NAME    : VideoHandler
        VENDOR_ID       : [0][0][0][0]
        ENCODER         : Lavc61.19.100 libx265
        BPS             : 2373200
        DURATION        : 00:22:20.966333333
        NUMBER_OF_FRAMES: 40229
        NUMBER_OF_BYTES : 397797596
        _STATISTICS_WRITING_APP: mkvpropedit v94.0 ('Initiate') 64-bit
        _STATISTICS_WRITING_DATE_UTC: 2026-03-29 13:09:47
        _STATISTICS_TAGS: BPS DURATION NUMBER_OF_FRAMES NUMBER_OF_BYTES
  Stream #0:1: Audio: aac (LC), 48000 Hz, stereo, fltp (default)
      Metadata:
        HANDLER_NAME    : SoundHandler
        VENDOR_ID       : [0][0][0][0]
        ENCODER         : Lavc61.19.100 aac
        BPS             : 195170
        DURATION        : 00:22:20.994000000
        NUMBER_OF_FRAMES: 62860
        NUMBER_OF_BYTES : 32715283
        _STATISTICS_WRITING_APP: mkvpropedit v94.0 ('Initiate') 64-bit
        _STATISTICS_WRITING_DATE_UTC: 2026-03-29 13:09:47
        _STATISTICS_TAGS: BPS DURATION NUMBER_OF_FRAMES NUMBER_OF_BYTES
[mov,mp4,m4a,3gp,3g2,mj2 @ 000001a78c611000] Unknown cover type: 0x1.
Input #1, mov,mp4,m4a,3gp,3g2,mj2, from 'F:\Аниме\LightFamily\Спираль\[LightFamily][DUB] Спираль 01 серия.mp4':
  Metadata:
    major_brand     : isom
    minor_version   : 512
    compatible_brands: isomiso2avc1mp41
    creation_time   : 2024-10-21T14:40:41.000000Z
    Hw              : 1
    bitrate         : 11000000
    maxrate         : 0
    te_is_reencode  : 1
    encoder         : Lavf61.1.100
  Duration: 00:22:20.98, start: 0.000000, bitrate: 8513 kb/s
  Stream #1:0[0x1](und): Video: h264 (Main) (avc1 / 0x31637661), yuv420p(tv, bt709, progressive), 1920x1080 [SAR 1:1 DAR 16:9], 8312 kb/s, 30 fps, 30 tbr, 30 tbn (default)
      Metadata:
        creation_time   : 2024-10-21T14:40:41.000000Z
        handler_name    : VideoHandler
        vendor_id       : [0][0][0][0]
  Stream #1:1[0x2](und): Audio: aac (LC) (mp4a / 0x6134706D), 44100 Hz, stereo, fltp, 195 kb/s (default)
      Metadata:
        creation_time   : 2024-10-21T14:40:41.000000Z
        handler_name    : SoundHandler
        vendor_id       : [0][0][0][0]
Stream mapping:
  Stream #0:0 (hevc) -> settb:default
  Stream #1:0 (h264) -> settb:default
  psnr:default -> Stream #0:0 (wrapped_avframe)
  Stream #0:1 -> #0:1 (aac (native) -> pcm_s16le (native))
Output #0, null, to 'pipe:':
  Metadata:
    MAXRATE         : 0
    MAJOR_BRAND     : isom
    MINOR_VERSION   : 512
    COMPATIBLE_BRANDS: isomiso2avc1mp41
    TE_IS_REENCODE  : 1
    HW              : 1
    BITRATE         : 11000000
    encoder         : Lavf61.7.100
  Stream #0:0: Video: wrapped_avframe, yuv420p10le(tv, bt709, progressive), 1920x1080 [SAR 1:1 DAR 16:9], q=2-31, 200 kb/s, 30 fps, 30 tbn
      Metadata:
        encoder         : Lavc61.19.100 wrapped_avframe
  Stream #0:1: Audio: pcm_s16le, 48000 Hz, stereo, s16, 1536 kb/s (default)
      Metadata:
        HANDLER_NAME    : SoundHandler
        VENDOR_ID       : [0][0][0][0]
        _STATISTICS_TAGS: BPS DURATION NUMBER_OF_FRAMES NUMBER_OF_BYTES
        BPS             : 195170
        DURATION        : 00:22:20.994000000
        NUMBER_OF_FRAMES: 62860
        NUMBER_OF_BYTES : 32715283
        _STATISTICS_WRITING_APP: mkvpropedit v94.0 ('Initiate') 64-bit
        _STATISTICS_WRITING_DATE_UTC: 2026-03-29 13:09:47
        encoder         : Lavc61.19.100 pcm_s16le
frame=  156 fps=0.0 q=-0.0 size=N/A time=00:00:05.20 bitrate=N/A speed=10.2x    frame=  354 fps=346 q=-0.0 size=N/A time=00:00:11.80 bitrate=N/A speed=11.5x    frame=  545 fps=352 q=-0.0 size=N/A time=00:00:18.16 bitrate=N/A speed=11.7x    frame=  714 fps=346 q=-0.0 size=N/A time=00:00:23.80 bitrate=N/A speed=11.5x    frame=  914 fps=355 q=-0.0 size=N/A time=00:00:30.46 bitrate=N/A speed=11.8x    frame= 1103 fps=357 q=-0.0 size=N/A time=00:00:36.76 bitrate=N/A speed=11.9x    frame= 1256 fps=348 q=-0.0 size=N/A time=00:00:41.86 bitrate=N/A speed=11.6x    frame= 1414 fps=343 q=-0.0 size=N/A time=00:00:47.13 bitrate=N/A speed=11.4x    frame= 1572 fps=339 q=-0.0 size=N/A time=00:00:52.40 bitrate=N/A speed=11.3x    frame= 1727 fps=336 q=-0.0 size=N/A time=00:00:57.56 bitrate=N/A speed=11.2x    frame= 1892 fps=333 q=-0.0 size=N/A time=00:01:03.06 bitrate=N/A speed=11.1x    frame= 2062 fps=333 q=-0.0 size=N/A time=00:01:08.73 bitrate=N/A speed=11.1x    frame= 2235 fps=334 q=-0.0 size=N/A time=00:01:14.50 bitrate=N/A speed=11.1x    frame= 2428 fps=337 q=-0.0 size=N/A time=00:01:20.93 bitrate=N/A speed=11.2x    frame= 2633 fps=340 q=-0.0 size=N/A time=00:01:27.76 bitrate=N/A speed=11.3x    frame= 2831 fps=343 q=-0.0 size=N/A time=00:01:34.36 bitrate=N/A speed=11.4x    frame= 3020 fps=345 q=-0.0 size=N/A time=00:01:40.66 bitrate=N/A speed=11.5x    frame= 3211 fps=346 q=-0.0 size=N/A time=00:01:47.03 bitrate=N/A speed=11.5x    frame= 3406 fps=348 q=-0.0 size=N/A time=00:01:53.53 bitrate=N/A speed=11.6x    frame= 3593 fps=349 q=-0.0 size=N/A time=00:01:59.76 bitrate=N/A speed=11.6x    frame= 3759 fps=347 q=-0.0 size=N/A time=00:02:05.30 bitrate=N/A speed=11.6x    frame= 3905 fps=344 q=-0.0 size=N/A time=00:02:10.16 bitrate=N/A speed=11.5x    frame= 4073 fps=344 q=-0.0 size=N/A time=00:02:15.76 bitrate=N/A speed=11.5x    frame= 4244 fps=343 q=-0.0 size=N/A time=00:02:21.46 bitrate=N/A speed=11.4x    frame= 4403 fps=342 q=-0.0 size=N/A time=00:02:26.76 bitrate=N/A speed=11.4x    frame= 4573 fps=341 q=-0.0 size=N/A time=00:02:32.43 bitrate=N/A speed=11.4x    frame= 4755 fps=342 q=-0.0 size=N/A time=00:02:38.50 bitrate=N/A speed=11.4x    frame= 4947 fps=343 q=-0.0 size=N/A time=00:02:44.90 bitrate=N/A speed=11.4x    frame= 5125 fps=343 q=-0.0 size=N/A time=00:02:50.83 bitrate=N/A speed=11.4x    frame= 5298 fps=343 q=-0.0 size=N/A time=00:02:56.60 bitrate=N/A speed=11.4x    frame= 5481 fps=343 q=-0.0 size=N/A time=00:03:02.70 bitrate=N/A speed=11.4x    frame= 5631 fps=341 q=-0.0 size=N/A time=00:03:07.70 bitrate=N/A speed=11.4x    frame= 5790 fps=340 q=-0.0 size=N/A time=00:03:13.00 bitrate=N/A speed=11.3x    frame= 5983 fps=341 q=-0.0 size=N/A time=00:03:19.43 bitrate=N/A speed=11.4x    frame= 6172 fps=342 q=-0.0 size=N/A time=00:03:25.73 bitrate=N/A speed=11.4x    frame= 6338 fps=341 q=-0.0 size=N/A time=00:03:31.26 bitrate=N/A speed=11.4x    frame= 6527 fps=342 q=-0.0 size=N/A time=00:03:37.56 bitrate=N/A speed=11.4x    frame= 6692 fps=342 q=-0.0 size=N/A time=00:03:43.06 bitrate=N/A speed=11.4x    frame= 6863 fps=341 q=-0.0 size=N/A time=00:03:48.76 bitrate=N/A speed=11.4x    frame= 7026 fps=341 q=-0.0 size=N/A time=00:03:54.20 bitrate=N/A speed=11.4x    frame= 7203 fps=341 q=-0.0 size=N/A time=00:04:00.10 bitrate=N/A speed=11.4x    frame= 7382 fps=341 q=-0.0 size=N/A time=00:04:06.06 bitrate=N/A speed=11.4x    frame= 7559 fps=341 q=-0.0 size=N/A time=00:04:11.96 bitrate=N/A speed=11.4x    frame= 7740 fps=341 q=-0.0 size=N/A time=00:04:18.00 bitrate=N/A speed=11.4x    frame= 7924 fps=342 q=-0.0 size=N/A time=00:04:24.13 bitrate=N/A speed=11.4x    frame= 8067 fps=340 q=-0.0 size=N/A time=00:04:28.90 bitrate=N/A speed=11.3x    frame= 8222 fps=339 q=-0.0 size=N/A time=00:04:34.06 bitrate=N/A speed=11.3x    frame= 8415 fps=340 q=-0.0 size=N/A time=00:04:40.50 bitrate=N/A speed=11.3x    frame= 8592 fps=340 q=-0.0 size=N/A time=00:04:46.40 bitrate=N/A speed=11.3x    frame= 8778 fps=340 q=-0.0 size=N/A time=00:04:52.60 bitrate=N/A speed=11.3x    frame= 8961 fps=341 q=-0.0 size=N/A time=00:04:58.70 bitrate=N/A speed=11.4x    frame= 9150 fps=341 q=-0.0 size=N/A time=00:05:05.00 bitrate=N/A speed=11.4x    frame= 9314 fps=341 q=-0.0 size=N/A time=00:05:10.46 bitrate=N/A speed=11.4x    frame= 9491 fps=341 q=-0.0 size=N/A time=00:05:16.36 bitrate=N/A speed=11.4x    frame= 9645 fps=340 q=-0.0 size=N/A time=00:05:21.50 bitrate=N/A speed=11.3x    frame= 9802 fps=340 q=-0.0 size=N/A time=00:05:26.73 bitrate=N/A speed=11.3x    frame= 9977 fps=339 q=-0.0 size=N/A time=00:05:32.56 bitrate=N/A speed=11.3x    frame=10168 fps=340 q=-0.0 size=N/A time=00:05:38.93 bitrate=N/A speed=11.3x    frame=10368 fps=341 q=-0.0 size=N/A time=00:05:45.60 bitrate=N/A speed=11.4x    frame=10564 fps=341 q=-0.0 size=N/A time=00:05:52.13 bitrate=N/A speed=11.4x    frame=10746 fps=342 q=-0.0 size=N/A time=00:05:58.20 bitrate=N/A speed=11.4x    frame=10924 fps=342 q=-0.0 size=N/A time=00:06:04.13 bitrate=N/A speed=11.4x    frame=11107 fps=342 q=-0.0 size=N/A time=00:06:10.23 bitrate=N/A speed=11.4x    frame=11288 fps=342 q=-0.0 size=N/A time=00:06:16.26 bitrate=N/A speed=11.4x    frame=11469 fps=342 q=-0.0 size=N/A time=00:06:22.30 bitrate=N/A speed=11.4x    frame=11648 fps=342 q=-0.0 size=N/A time=00:06:28.26 bitrate=N/A speed=11.4x    frame=11834 fps=343 q=-0.0 size=N/A time=00:06:34.46 bitrate=N/A speed=11.4x    frame=12030 fps=343 q=-0.0 size=N/A time=00:06:41.00 bitrate=N/A speed=11.4x    frame=12228 fps=344 q=-0.0 size=N/A time=00:06:47.60 bitrate=N/A speed=11.5x    frame=12414 fps=344 q=-0.0 size=N/A time=00:06:53.80 bitrate=N/A speed=11.5x    frame=12602 fps=344 q=-0.0 size=N/A time=00:07:00.06 bitrate=N/A speed=11.5x    frame=12790 fps=344 q=-0.0 size=N/A time=00:07:06.33 bitrate=N/A speed=11.5x    frame=12974 fps=345 q=-0.0 size=N/A time=00:07:12.46 bitrate=N/A speed=11.5x    frame=13165 fps=345 q=-0.0 size=N/A time=00:07:18.83 bitrate=N/A speed=11.5x    frame=13353 fps=345 q=-0.0 size=N/A time=00:07:25.10 bitrate=N/A speed=11.5x    frame=13531 fps=345 q=-0.0 size=N/A time=00:07:31.03 bitrate=N/A speed=11.5x    frame=13667 fps=344 q=-0.0 size=N/A time=00:07:35.56 bitrate=N/A speed=11.5x    frame=13819 fps=344 q=-0.0 size=N/A time=00:07:40.63 bitrate=N/A speed=11.5x    frame=13973 fps=343 q=-0.0 size=N/A time=00:07:45.76 bitrate=N/A speed=11.4x    frame=14173 fps=344 q=-0.0 size=N/A time=00:07:52.43 bitrate=N/A speed=11.5x    frame=14359 fps=344 q=-0.0 size=N/A time=00:07:58.63 bitrate=N/A speed=11.5x    frame=14559 fps=344 q=-0.0 size=N/A time=00:08:05.30 bitrate=N/A speed=11.5x    frame=14758 fps=345 q=-0.0 size=N/A time=00:08:11.93 bitrate=N/A speed=11.5x    frame=14936 fps=345 q=-0.0 size=N/A time=00:08:17.86 bitrate=N/A speed=11.5x    frame=15093 fps=344 q=-0.0 size=N/A time=00:08:23.10 bitrate=N/A speed=11.5x    frame=15276 fps=345 q=-0.0 size=N/A time=00:08:29.20 bitrate=N/A speed=11.5x    frame=15482 fps=345 q=-0.0 size=N/A time=00:08:36.06 bitrate=N/A speed=11.5x    frame=15670 fps=345 q=-0.0 size=N/A time=00:08:42.33 bitrate=N/A speed=11.5x    frame=15851 fps=345 q=-0.0 size=N/A time=00:08:48.36 bitrate=N/A speed=11.5x    frame=16046 fps=346 q=-0.0 size=N/A time=00:08:54.86 bitrate=N/A speed=11.5x    frame=16226 fps=346 q=-0.0 size=N/A time=00:09:00.86 bitrate=N/A speed=11.5x    frame=16421 fps=346 q=-0.0 size=N/A time=00:09:07.36 bitrate=N/A speed=11.5x    frame=16597 fps=346 q=-0.0 size=N/A time=00:09:13.23 bitrate=N/A speed=11.5x    frame=16781 fps=346 q=-0.0 size=N/A time=00:09:19.36 bitrate=N/A speed=11.5x    frame=16968 fps=346 q=-0.0 size=N/A time=00:09:25.60 bitrate=N/A speed=11.5x    frame=17166 fps=347 q=-0.0 size=N/A time=00:09:32.20 bitrate=N/A speed=11.6x    frame=17355 fps=347 q=-0.0 size=N/A time=00:09:38.50 bitrate=N/A speed=11.6x    frame=17538 fps=347 q=-0.0 size=N/A time=00:09:44.60 bitrate=N/A speed=11.6x    frame=17711 fps=347 q=-0.0 size=N/A time=00:09:50.36 bitrate=N/A speed=11.6x    frame=17904 fps=347 q=-0.0 size=N/A time=00:09:56.80 bitrate=N/A speed=11.6x    frame=18107 fps=348 q=-0.0 size=N/A time=00:10:03.56 bitrate=N/A speed=11.6x    frame=18300 fps=348 q=-0.0 size=N/A time=00:10:10.00 bitrate=N/A speed=11.6x    frame=18507 fps=348 q=-0.0 size=N/A time=00:10:16.90 bitrate=N/A speed=11.6x    frame=18696 fps=349 q=-0.0 size=N/A time=00:10:23.20 bitrate=N/A speed=11.6x    frame=18883 fps=349 q=-0.0 size=N/A time=00:10:29.43 bitrate=N/A speed=11.6x    frame=19067 fps=349 q=-0.0 size=N/A time=00:10:35.56 bitrate=N/A speed=11.6x    frame=19260 fps=349 q=-0.0 size=N/A time=00:10:42.00 bitrate=N/A speed=11.6x    frame=19456 fps=349 q=-0.0 size=N/A time=00:10:48.53 bitrate=N/A speed=11.6x    frame=19657 fps=350 q=-0.0 size=N/A time=00:10:55.23 bitrate=N/A speed=11.7x    frame=19851 fps=350 q=-0.0 size=N/A time=00:11:01.70 bitrate=N/A speed=11.7x    frame=20035 fps=350 q=-0.0 size=N/A time=00:11:07.83 bitrate=N/A speed=11.7x    frame=20220 fps=350 q=-0.0 size=N/A time=00:11:14.00 bitrate=N/A speed=11.7x    frame=20407 fps=350 q=-0.0 size=N/A time=00:11:20.23 bitrate=N/A speed=11.7x    frame=20603 fps=350 q=-0.0 size=N/A time=00:11:26.76 bitrate=N/A speed=11.7x    frame=20803 fps=351 q=-0.0 size=N/A time=00:11:33.43 bitrate=N/A speed=11.7x    frame=20975 fps=351 q=-0.0 size=N/A time=00:11:39.16 bitrate=N/A speed=11.7x    frame=21158 fps=351 q=-0.0 size=N/A time=00:11:45.26 bitrate=N/A speed=11.7x    frame=21354 fps=351 q=-0.0 size=N/A time=00:11:51.80 bitrate=N/A speed=11.7x    frame=21516 fps=351 q=-0.0 size=N/A time=00:11:57.20 bitrate=N/A speed=11.7x    frame=21623 fps=349 q=-0.0 size=N/A time=00:12:00.76 bitrate=N/A speed=11.6x    frame=21733 fps=348 q=-0.0 size=N/A time=00:12:04.43 bitrate=N/A speed=11.6x    frame=21927 fps=348 q=-0.0 size=N/A time=00:12:10.90 bitrate=N/A speed=11.6x    frame=22119 fps=349 q=-0.0 size=N/A time=00:12:17.30 bitrate=N/A speed=11.6x    frame=22302 fps=349 q=-0.0 size=N/A time=00:12:23.40 bitrate=N/A speed=11.6x    frame=22481 fps=349 q=-0.0 size=N/A time=00:12:29.36 bitrate=N/A speed=11.6x    frame=22589 fps=348 q=-0.0 size=N/A time=00:12:32.96 bitrate=N/A speed=11.6x    frame=22714 fps=347 q=-0.0 size=N/A time=00:12:37.13 bitrate=N/A speed=11.6x    frame=22849 fps=346 q=-0.0 size=N/A time=00:12:41.63 bitrate=N/A speed=11.5x    frame=23012 fps=346 q=-0.0 size=N/A time=00:12:47.06 bitrate=N/A speed=11.5x    frame=23184 fps=346 q=-0.0 size=N/A time=00:12:52.80 bitrate=N/A speed=11.5x    frame=23383 fps=346 q=-0.0 size=N/A time=00:12:59.43 bitrate=N/A speed=11.5x    frame=23583 fps=346 q=-0.0 size=N/A time=00:13:06.10 bitrate=N/A speed=11.5x    frame=23771 fps=346 q=-0.0 size=N/A time=00:13:12.36 bitrate=N/A speed=11.5x    frame=23918 fps=346 q=-0.0 size=N/A time=00:13:17.26 bitrate=N/A speed=11.5x    frame=24042 fps=345 q=-0.0 size=N/A time=00:13:21.40 bitrate=N/A speed=11.5x    frame=24200 fps=345 q=-0.0 size=N/A time=00:13:26.66 bitrate=N/A speed=11.5x    frame=24384 fps=345 q=-0.0 size=N/A time=00:13:32.80 bitrate=N/A speed=11.5x    frame=24548 fps=345 q=-0.0 size=N/A time=00:13:38.26 bitrate=N/A speed=11.5x    frame=24732 fps=345 q=-0.0 size=N/A time=00:13:44.40 bitrate=N/A speed=11.5x    frame=24907 fps=345 q=-0.0 size=N/A time=00:13:50.23 bitrate=N/A speed=11.5x    frame=25106 fps=345 q=-0.0 size=N/A time=00:13:56.86 bitrate=N/A speed=11.5x    frame=25303 fps=345 q=-0.0 size=N/A time=00:14:03.43 bitrate=N/A speed=11.5x    frame=25510 fps=346 q=-0.0 size=N/A time=00:14:10.33 bitrate=N/A speed=11.5x    frame=25706 fps=346 q=-0.0 size=N/A time=00:14:16.86 bitrate=N/A speed=11.5x    frame=25900 fps=346 q=-0.0 size=N/A time=00:14:23.33 bitrate=N/A speed=11.5x    frame=26096 fps=346 q=-0.0 size=N/A time=00:14:29.86 bitrate=N/A speed=11.5x    frame=26288 fps=347 q=-0.0 size=N/A time=00:14:36.26 bitrate=N/A speed=11.6x    frame=26466 fps=347 q=-0.0 size=N/A time=00:14:42.20 bitrate=N/A speed=11.6x    frame=26647 fps=347 q=-0.0 size=N/A time=00:14:48.23 bitrate=N/A speed=11.6x    frame=26823 fps=347 q=-0.0 size=N/A time=00:14:54.10 bitrate=N/A speed=11.6x    frame=27006 fps=347 q=-0.0 size=N/A time=00:15:00.20 bitrate=N/A speed=11.6x    frame=27194 fps=347 q=-0.0 size=N/A time=00:15:06.46 bitrate=N/A speed=11.6x    frame=27354 fps=347 q=-0.0 size=N/A time=00:15:11.80 bitrate=N/A speed=11.6x    frame=27538 fps=347 q=-0.0 size=N/A time=00:15:17.93 bitrate=N/A speed=11.6x    frame=27731 fps=347 q=-0.0 size=N/A time=00:15:24.36 bitrate=N/A speed=11.6x    frame=27916 fps=347 q=-0.0 size=N/A time=00:15:30.53 bitrate=N/A speed=11.6x    frame=28081 fps=347 q=-0.0 size=N/A time=00:15:36.03 bitrate=N/A speed=11.6x    frame=28275 fps=347 q=-0.0 size=N/A time=00:15:42.50 bitrate=N/A speed=11.6x    frame=28460 fps=347 q=-0.0 size=N/A time=00:15:48.66 bitrate=N/A speed=11.6x    frame=28652 fps=347 q=-0.0 size=N/A time=00:15:55.06 bitrate=N/A speed=11.6x    frame=28824 fps=347 q=-0.0 size=N/A time=00:16:00.80 bitrate=N/A speed=11.6x    frame=28999 fps=347 q=-0.0 size=N/A time=00:16:06.63 bitrate=N/A speed=11.6x    frame=29165 fps=347 q=-0.0 size=N/A time=00:16:12.16 bitrate=N/A speed=11.6x    frame=29340 fps=347 q=-0.0 size=N/A time=00:16:18.00 bitrate=N/A speed=11.6x    frame=29523 fps=347 q=-0.0 size=N/A time=00:16:24.10 bitrate=N/A speed=11.6x    frame=29704 fps=347 q=-0.0 size=N/A time=00:16:30.13 bitrate=N/A speed=11.6x    frame=29902 fps=347 q=-0.0 size=N/A time=00:16:36.73 bitrate=N/A speed=11.6x    frame=30097 fps=347 q=-0.0 size=N/A time=00:16:43.23 bitrate=N/A speed=11.6x    frame=30285 fps=347 q=-0.0 size=N/A time=00:16:49.50 bitrate=N/A speed=11.6x    frame=30474 fps=347 q=-0.0 size=N/A time=00:16:55.80 bitrate=N/A speed=11.6x    frame=30670 fps=348 q=-0.0 size=N/A time=00:17:02.33 bitrate=N/A speed=11.6x    frame=30840 fps=348 q=-0.0 size=N/A time=00:17:08.00 bitrate=N/A speed=11.6x    frame=30998 fps=347 q=-0.0 size=N/A time=00:17:13.26 bitrate=N/A speed=11.6x    frame=31202 fps=348 q=-0.0 size=N/A time=00:17:20.06 bitrate=N/A speed=11.6x    frame=31389 fps=348 q=-0.0 size=N/A time=00:17:26.30 bitrate=N/A speed=11.6x    frame=31587 fps=348 q=-0.0 size=N/A time=00:17:32.90 bitrate=N/A speed=11.6x    frame=31785 fps=348 q=-0.0 size=N/A time=00:17:39.50 bitrate=N/A speed=11.6x    frame=31990 fps=348 q=-0.0 size=N/A time=00:17:46.33 bitrate=N/A speed=11.6x    frame=32188 fps=349 q=-0.0 size=N/A time=00:17:52.93 bitrate=N/A speed=11.6x    frame=32368 fps=349 q=-0.0 size=N/A time=00:17:58.93 bitrate=N/A speed=11.6x    frame=32553 fps=349 q=-0.0 size=N/A time=00:18:05.10 bitrate=N/A speed=11.6x    frame=32720 fps=349 q=-0.0 size=N/A time=00:18:10.66 bitrate=N/A speed=11.6x    frame=32865 fps=348 q=-0.0 size=N/A time=00:18:15.50 bitrate=N/A speed=11.6x    frame=33038 fps=348 q=-0.0 size=N/A time=00:18:21.26 bitrate=N/A speed=11.6x    frame=33233 fps=348 q=-0.0 size=N/A time=00:18:27.76 bitrate=N/A speed=11.6x    frame=33434 fps=348 q=-0.0 size=N/A time=00:18:34.46 bitrate=N/A speed=11.6x    frame=33636 fps=349 q=-0.0 size=N/A time=00:18:41.20 bitrate=N/A speed=11.6x    frame=33836 fps=349 q=-0.0 size=N/A time=00:18:47.86 bitrate=N/A speed=11.6x    frame=34038 fps=349 q=-0.0 size=N/A time=00:18:54.60 bitrate=N/A speed=11.6x    frame=34224 fps=349 q=-0.0 size=N/A time=00:19:00.80 bitrate=N/A speed=11.6x    frame=34384 fps=349 q=-0.0 size=N/A time=00:19:06.13 bitrate=N/A speed=11.6x    frame=34551 fps=349 q=-0.0 size=N/A time=00:19:11.70 bitrate=N/A speed=11.6x    frame=34713 fps=349 q=-0.0 size=N/A time=00:19:17.10 bitrate=N/A speed=11.6x    frame=34897 fps=349 q=-0.0 size=N/A time=00:19:23.23 bitrate=N/A speed=11.6x    frame=35061 fps=349 q=-0.0 size=N/A time=00:19:28.70 bitrate=N/A speed=11.6x    frame=35237 fps=349 q=-0.0 size=N/A time=00:19:34.56 bitrate=N/A speed=11.6x    frame=35421 fps=349 q=-0.0 size=N/A time=00:19:40.70 bitrate=N/A speed=11.6x    frame=35622 fps=349 q=-0.0 size=N/A time=00:19:47.40 bitrate=N/A speed=11.6x    frame=35799 fps=349 q=-0.0 size=N/A time=00:19:53.30 bitrate=N/A speed=11.6x    frame=35967 fps=349 q=-0.0 size=N/A time=00:19:58.90 bitrate=N/A speed=11.6x    frame=36095 fps=348 q=-0.0 size=N/A time=00:20:03.16 bitrate=N/A speed=11.6x    frame=36262 fps=348 q=-0.0 size=N/A time=00:20:08.73 bitrate=N/A speed=11.6x    frame=36442 fps=348 q=-0.0 size=N/A time=00:20:14.73 bitrate=N/A speed=11.6x    frame=36639 fps=348 q=-0.0 size=N/A time=00:20:21.30 bitrate=N/A speed=11.6x    frame=36831 fps=348 q=-0.0 size=N/A time=00:20:27.70 bitrate=N/A speed=11.6x    frame=37023 fps=348 q=-0.0 size=N/A time=00:20:34.10 bitrate=N/A speed=11.6x    frame=37209 fps=348 q=-0.0 size=N/A time=00:20:40.30 bitrate=N/A speed=11.6x    frame=37408 fps=349 q=-0.0 size=N/A time=00:20:46.93 bitrate=N/A speed=11.6x    frame=37603 fps=349 q=-0.0 size=N/A time=00:20:53.43 bitrate=N/A speed=11.6x    frame=37805 fps=349 q=-0.0 size=N/A time=00:21:00.16 bitrate=N/A speed=11.6x    frame=37997 fps=349 q=-0.0 size=N/A time=00:21:06.56 bitrate=N/A speed=11.6x    frame=38163 fps=349 q=-0.0 size=N/A time=00:21:12.10 bitrate=N/A speed=11.6x    frame=38342 fps=349 q=-0.0 size=N/A time=00:21:18.06 bitrate=N/A speed=11.6x    frame=38529 fps=349 q=-0.0 size=N/A time=00:21:24.30 bitrate=N/A speed=11.6x    frame=38725 fps=349 q=-0.0 size=N/A time=00:21:30.83 bitrate=N/A speed=11.6x    frame=38919 fps=349 q=-0.0 size=N/A time=00:21:37.30 bitrate=N/A speed=11.6x    frame=39122 fps=350 q=-0.0 size=N/A time=00:21:44.06 bitrate=N/A speed=11.7x    frame=39328 fps=350 q=-0.0 size=N/A time=00:21:50.93 bitrate=N/A speed=11.7x    frame=39513 fps=350 q=-0.0 size=N/A time=00:21:57.10 bitrate=N/A speed=11.7x    frame=39712 fps=350 q=-0.0 size=N/A time=00:22:03.73 bitrate=N/A speed=11.7x    frame=39909 fps=350 q=-0.0 size=N/A time=00:22:10.30 bitrate=N/A speed=11.7x    frame=40125 fps=350 q=-0.0 size=N/A time=00:22:17.50 bitrate=N/A speed=11.7x    [Parsed_psnr_16 @ 000001a78f689340] PSNR y:44.866493 u:59.678489 v:61.498398 average:46.568376 min:38.063432 max:73.018959
[out#0/null @ 000001a78c5bf1c0] video:17286KiB audio:251440KiB subtitle:0KiB other streams:0KiB global headers:0KiB muxing overhead: unknown
frame=40229 fps=350 q=-0.0 Lsize=N/A time=00:22:20.96 bitrate=N/A speed=11.7x    
